<svg xmlns="http://www.w3.org/2000/svg" width="1400" height="630" viewBox="0 0 1400 630">
  <g id="Layer_2" data-name="Layer 2" transform="translate(0 -0.383)">
    <g id="Group_11" data-name="Group 11">
      <g id="Group_5" data-name="Group 5">
        <rect id="Rectangle_1" data-name="Rectangle 1" width="1400" height="630" transform="translate(0 0.383)"/>
        <path id="Path_12" data-name="Path 12" d="M239.858,265.27c-18.692-1.293-34.829,13.606-36.058,33.281s12.916,36.67,31.609,37.964,34.829-13.606,36.058-33.281S258.551,266.564,239.858,265.27ZM236.3,322.262c-11.212-.776-19.705-10.973-18.968-22.774s10.426-20.741,21.637-19.965S258.673,290.5,257.936,302.3,247.51,323.038,236.3,322.262Z" fill="#f2f2f2"/>
        <path id="Path_13" data-name="Path 13" d="M348.043,357.755s2.642-9.843,6.315-12.891,10.91,1.984,6.865,7.235-5.491,7.99-11.79,9.167C349.433,361.266,346.8,361.617,348.043,357.755Z" fill="#f2f2f2"/>
        <path id="Path_14" data-name="Path 14" d="M372.609,278.6a5.027,5.027,0,0,0-9.424-.1,15.118,15.118,0,0,0-.487,7.61c1.821,13.077,2.563,28.611-.835,42.746a7.623,7.623,0,0,0-.2,2.313c.188,2.7.932,8.84,3.824,9.483,3.721.828,8.381-8.241,10.468-25.982C377.67,300.118,375.636,286.309,372.609,278.6Z" fill="#f2f2f2"/>
        <path id="Path_15" data-name="Path 15" d="M391.416,268.615v0S384.7,238.439,369.3,235.562c-14.25-2.665-94.632,38.433-119.71,52.373s7.786,15.362,7.786,15.362l5.055-4.6s82.8-32.759,99.3-36.2c23-4.794,24.857,5.341,27.33,12.782,1.492,4.489,1.993,10.975,2.336,14.206a80.9,80.9,0,0,1,.172,13.583c-2.833,45.35-33.733,79.46-71.44,86.457a58.644,58.644,0,0,1-37.076-5.092,87.8,87.8,0,0,1-14.189-8.845c-22.68-17.556-39.615-48.559-36.005-85.512,4.424-45.291,31.824-75.013,77.477-84.194,1.406-.283,2.817-.486,4.228-.627v0l.084-.005a43.947,43.947,0,0,1,4.823-.205l.2-.006c3.127-.083,3.655-4.746.629-5.581a82.767,82.767,0,0,0-15.942-3.082c-53.578-3.1-98.819,39.836-101.475,96.246-2.589,54.987,37.076,102.211,89.38,106.116,50.746,3.788,97.607-37.689,102.662-90.972A106.405,106.405,0,0,0,391.416,268.615Z" fill="#f2f2f2"/>
        <ellipse id="Ellipse_4" data-name="Ellipse 4" cx="20.346" cy="21.416" rx="20.346" ry="21.416" transform="translate(217.288 279.477)"/>
        <path id="Path_16" data-name="Path 16" d="M248.493,299.129a10.281,10.281,0,0,0-11.392-9.187,10.792,10.792,0,0,0-4.44,1.455c.335-.065.675-.117,1.021-.151a10.178,10.178,0,0,1,6.243,18.972A10.488,10.488,0,0,0,248.493,299.129Z" fill="#f2f2f2"/>
        <ellipse id="Ellipse_5" data-name="Ellipse 5" cx="6.113" cy="6.435" rx="6.113" ry="6.435" transform="translate(228.825 295.124)" fill="#9e9e9e"/>
        <g id="Group_4" data-name="Group 4">
          <path id="Path_17" data-name="Path 17" d="M647.9,225.351a11.064,11.064,0,0,0-5.968-5.612L607.793,206.6a10.415,10.415,0,0,0-7.655.089l-11.946,34.4a11.121,11.121,0,0,0,5.795,5.263l34.144,13.14a10.378,10.378,0,0,0,8-.241Z" fill="#f2f2f2"/>
          <path id="Path_18" data-name="Path 18" d="M685.738,247.7l-6.807,19.6,20.563,7.915,6.81-19.6Z" fill="#f2f2f2"/>
          <path id="Path_19" data-name="Path 19" d="M684.4,246.06a11.286,11.286,0,0,0-6.735-7.632l-28.19-10.848L638.7,258.616l28.2,10.85a10.454,10.454,0,0,0,9.827-1.273Z" fill="#f2f2f2"/>
          <path id="Path_20" data-name="Path 20" d="M597.2,207.922a8.788,8.788,0,0,0-5.082,5.347l-5.775,16.625a9.445,9.445,0,0,0,.606,7.537Z" fill="#f2f2f2"/>
          <path id="Path_21" data-name="Path 21" d="M676.964,219.843a3.078,3.078,0,0,0-4,1.957,3.334,3.334,0,0,0,1.859,4.213l9.723,3.741a2.916,2.916,0,0,0,.669.168l-.443-7.073Z" fill="#f2f2f2"/>
          <path id="Path_22" data-name="Path 22" d="M677.666,236.752l-3.791-1.459,2.625-7.555,3.791,1.458Z" fill="#f2f2f2"/>
          <path id="Path_23" data-name="Path 23" d="M663.137,279.854l-19.661-7.566,3.154-9.075,19.657,7.564Z" fill="#f2f2f2"/>
          <path id="Path_24" data-name="Path 24" d="M658.636,287.088a9.376,9.376,0,1,1-9.363-9.856A9.619,9.619,0,0,1,658.636,287.088Z" fill="#f2f2f2"/>
          <path id="Path_25" data-name="Path 25" d="M640.832,296.792l-45.949,85.523s-1.681,11.8,7.845,4.719L618.9,356.69A24.2,24.2,0,0,1,633.153,344.8a50.759,50.759,0,0,1,36.023,1.96,22.409,22.409,0,0,1,10.476,9.961l16.1,30.309s7.284,5.9,7.845-4.719L658.2,296.792S649.237,306.229,640.832,296.792Z" fill="#f2f2f2" stroke="#f2f2f2" stroke-miterlimit="10" stroke-width="1"/>
          <path id="Path_26" data-name="Path 26" d="M641.953,308.589s6.724,5.308,15.69-.59l15.129,30.67s-24.655-11.206-45.389,0Z"/>
        </g>
        <text id="VIT" transform="translate(732.191 393.841)" fill="#f2f2f2" font-size="164.812" font-family="SegoeUI, Segoe UI" letter-spacing="0.11em"><tspan x="0" y="0">VIT</tspan></text>
        <text id="R" transform="translate(439.445 393.842)" fill="#f2f2f2" font-size="164.812" font-family="SegoeUI, Segoe UI"><tspan x="0" y="0">R</tspan></text>
      </g>
      <ellipse id="Ellipse_6" data-name="Ellipse 6" cx="15.316" cy="16.121" rx="15.316" ry="16.121" transform="translate(874.574 185.959)" fill="#f2f2f2"/>
      <ellipse id="Ellipse_7" data-name="Ellipse 7" cx="44.375" cy="7.535" rx="44.375" ry="7.535" transform="matrix(0.787, -0.617, 0.617, 0.787, 850.416, 223.843)" fill="none" stroke="#f2f2f2" stroke-miterlimit="10" stroke-width="2"/>
      <ellipse id="Ellipse_8" data-name="Ellipse 8" cx="8.721" cy="51.317" rx="8.721" ry="51.317" transform="matrix(0.611, -0.792, 0.792, 0.611, 843.817, 177.809)" fill="none" stroke="#f2f2f2" stroke-miterlimit="10" stroke-width="2"/>
      <ellipse id="Ellipse_9" data-name="Ellipse 9" cx="23.607" cy="24.848" rx="23.607" ry="24.848" transform="translate(868.298 176.031)" fill="none" stroke="#f2f2f2" stroke-miterlimit="10" stroke-width="2.75"/>
      <g id="Group_10" data-name="Group 10">
        <rect id="Rectangle_10" data-name="Rectangle 10" width="26.377" height="50.835" rx="13.188" transform="translate(1096.939 345.497)" fill="#fff"/>
        <g id="Group_8" data-name="Group 8">
          <rect id="Rectangle_11" data-name="Rectangle 11" width="81.702" height="9.702" transform="translate(1069.83 252.88)" fill="#fff"/>
          <rect id="Rectangle_12" data-name="Rectangle 12" width="81.702" height="5.044" transform="translate(1069.83 252.88)" fill="#e6e6e6"/>
        </g>
        <g id="Group_9" data-name="Group 9">
          <rect id="Rectangle_13" data-name="Rectangle 13" width="73.575" height="9.702" transform="translate(1073.106 281.669)" fill="#fff"/>
          <rect id="Rectangle_14" data-name="Rectangle 14" width="73.575" height="4.851" transform="translate(1073.106 281.669)" fill="#e6e6e6"/>
        </g>
        <circle id="Ellipse_10" data-name="Ellipse 10" cx="10" cy="10" r="10" transform="translate(1055.723 247.924)" fill="#fff"/>
        <circle id="Ellipse_11" data-name="Ellipse 11" cx="9.999" cy="9.999" r="9.999" transform="translate(1063.107 276.52)" fill="#fff"/>
        <circle id="Ellipse_12" data-name="Ellipse 12" cx="9.999" cy="9.999" r="9.999" transform="translate(1078.958 301.86)" fill="#fff"/>
        <circle id="Ellipse_13" data-name="Ellipse 13" cx="10" cy="10" r="10" transform="translate(1144.065 247.924)" fill="#fff"/>
        <circle id="Ellipse_14" data-name="Ellipse 14" cx="9.999" cy="9.999" r="9.999" transform="translate(1136.682 276.52)" fill="#fff"/>
        <circle id="Ellipse_15" data-name="Ellipse 15" cx="9.999" cy="9.999" r="9.999" transform="translate(1120.831 301.86)" fill="#fff"/>
        <circle id="Ellipse_16" data-name="Ellipse 16" cx="9.999" cy="9.999" r="9.999" transform="translate(1099.895 319.711)" fill="#fff"/>
      </g>
    </g>
    <text id="Gravitating_towards_Innovation..." data-name="Gravitating towards Innovation..." transform="translate(631.915 461.68)" fill="#fff" font-size="45" font-family="SegoeUI, Segoe UI"><tspan x="0" y="0">Gravitating towards Innovation...</tspan></text>
  </g>
</svg>
